<svg id="Layer_1" data-name="Layer 1" xmlns="http://www.w3.org/2000/svg" viewBox="0 0 382.1 59.3"><defs><style>.cls-1{fill:#606061;}.cls-2{fill:#ba1f40;}.cls-3{fill:#fff;}.cls-4{fill:#bb0e3d;}.cls-5{font-size:24px;font-family:MyriadPro-Regular, Myriad Pro;}.cls-6{letter-spacing:-0.01em;}.cls-7{letter-spacing:0.03em;}.cls-8{letter-spacing:0em;}.cls-9{letter-spacing:0.02em;}</style></defs><title>icdc_ctdc</title><path class="cls-1" d="M84.2,32,67.8,2.4H8.4A6.44,6.44,0,0,0,2,8.8V55.3a6.44,6.44,0,0,0,6.4,6.4H67.8Z" transform="translate(-2 -2.4)"/><path class="cls-2" d="M82.6,5.5a6.59,6.59,0,0,0-5.5-3.1H72.2L88.8,32,72.2,61.6h4.9a6.34,6.34,0,0,0,5.5-3.1L97.4,32Z" transform="translate(-2 -2.4)"/><rect class="cls-3" x="35.1" y="16.5" width="4.4" height="26.3"/><polygon class="cls-3" points="26.3 16.5 26.3 35.8 14.3 16.5 9.9 16.5 9.9 42.8 14.3 42.8 14.3 23.5 26.3 42.8 30.7 42.8 30.7 16.5 26.3 16.5"/><polygon class="cls-3" points="60.3 16.5 60.3 27.4 48.2 27.4 48.2 16.5 43.9 16.5 43.9 42.8 48.2 42.8 48.2 31.8 60.3 31.8 60.3 42.8 64.7 42.8 64.7 16.5 60.3 16.5"/><path class="cls-4" d="M120.2,11.2h2.7V23.5h-2.7l-5.8-7.7v7.7h-2.7V11.2h2.5l6,7.9Z" transform="translate(-2 -2.4)"/><path class="cls-4" d="M134.8,23.5l-1.1-2.6h-5.2l-1.1,2.6h-3l5.3-12.3h2.6l5.3,12.3Zm-3.7-8.7-1.5,3.5h3.1Z" transform="translate(-2 -2.4)"/><path class="cls-4" d="M143.3,13.6v9.9h-2.7V13.6h-3.5V11.2h9.6v2.4Z" transform="translate(-2 -2.4)"/><path class="cls-4" d="M148.8,11.2h2.7V23.5h-2.7Z" transform="translate(-2 -2.4)"/><path class="cls-4" d="M165,21.7a6.25,6.25,0,0,1-4.6,1.9,6.42,6.42,0,0,1-4.6-1.9,6.28,6.28,0,0,1,0-9,6.25,6.25,0,0,1,4.6-1.9,6.42,6.42,0,0,1,4.6,1.9,6.19,6.19,0,0,1,1.9,4.5A6.42,6.42,0,0,1,165,21.7Zm-1-4.5a4.07,4.07,0,0,0-1.1-2.9,3.42,3.42,0,0,0-5.2,0,4.36,4.36,0,0,0-1.1,2.9,3.34,3.34,0,0,0,1.1,2.7,3.62,3.62,0,0,0,5.2,0A3.53,3.53,0,0,0,164,17.2Z" transform="translate(-2 -2.4)"/><path class="cls-4" d="M177.7,11.2h2.7V23.5h-2.7l-5.8-7.7v7.7h-2.7V11.2h2.5l6,7.9Z" transform="translate(-2 -2.4)"/><path class="cls-4" d="M192.1,23.5,191,20.9h-5.2l-1.1,2.6h-3L187,11.2h2.6l5.3,12.3Zm-3.6-8.7L187,18.3h3.1Z" transform="translate(-2 -2.4)"/><path class="cls-4" d="M196.5,23.5V11.2h2.7v9.9h5.3v2.4Z" transform="translate(-2 -2.4)"/><path class="cls-4" d="M216.7,21.1a4.07,4.07,0,0,0,3.3-1.6l1.8,1.8a6.67,6.67,0,0,1-4.9,2.3,6.33,6.33,0,0,1-6.6-6.3,6.42,6.42,0,0,1,1.9-4.6,6.25,6.25,0,0,1,4.6-1.9,6.41,6.41,0,0,1,5,2.3l-1.8,2a4,4,0,0,0-3.2-1.6,3.54,3.54,0,0,0-2.6,1,3.22,3.22,0,0,0-1.1,2.7,3.34,3.34,0,0,0,1,2.7A3.69,3.69,0,0,0,216.7,21.1Z" transform="translate(-2 -2.4)"/><path class="cls-4" d="M232.6,23.5l-1.1-2.6h-5.2l-1.1,2.6h-3l5.3-12.3h2.6l5.3,12.3Zm-3.7-8.7-1.5,3.5h3.1Z" transform="translate(-2 -2.4)"/><path class="cls-4" d="M245.5,11.2h2.7V23.5h-2.7l-5.8-7.7v7.7H237V11.2h2.5l6,7.9Z" transform="translate(-2 -2.4)"/><path class="cls-4" d="M257,21.1a4.07,4.07,0,0,0,3.3-1.6l1.8,1.8a6.67,6.67,0,0,1-4.9,2.3,6.32,6.32,0,0,1-4.7-1.8,6.19,6.19,0,0,1-1.9-4.5,6.42,6.42,0,0,1,1.9-4.6,6.25,6.25,0,0,1,4.6-1.9,6.41,6.41,0,0,1,5,2.3l-1.8,2a4,4,0,0,0-3.2-1.6,3.54,3.54,0,0,0-2.6,1,3.22,3.22,0,0,0-1.1,2.7,3.34,3.34,0,0,0,1,2.7A3.37,3.37,0,0,0,257,21.1Z" transform="translate(-2 -2.4)"/><path class="cls-4" d="M273,11.2v2.4h-6.1v2.5h5.5v2.3h-5.5V21h6.3v2.4h-9V11.2Z" transform="translate(-2 -2.4)"/><path class="cls-4" d="M285.6,15.2a3.64,3.64,0,0,1-2.3,3.8l3.1,4.4H283l-2.7-3.9h-1.9v3.9h-2.7V11.2h4.6c1.9,0,3.3.3,4.1,1A3.64,3.64,0,0,1,285.6,15.2Zm-3.3,1.5a2,2,0,0,0,.5-1.4,1.45,1.45,0,0,0-.5-1.3,4.09,4.09,0,0,0-1.9-.3h-2.1v3.6h2A4.3,4.3,0,0,0,282.3,16.7Z" transform="translate(-2 -2.4)"/><path class="cls-4" d="M293,11.2h2.7V23.5H293Z" transform="translate(-2 -2.4)"/><path class="cls-4" d="M307.3,11.2H310V23.5h-2.7l-5.8-7.7v7.7h-2.7V11.2h2.5l6,7.9Z" transform="translate(-2 -2.4)"/><path class="cls-4" d="M316,13.6a1.27,1.27,0,0,0-.4.9,1.09,1.09,0,0,0,.4.9,19.92,19.92,0,0,0,2.2.8,7.55,7.55,0,0,1,2.7,1.3,2.92,2.92,0,0,1,1,2.5,3.09,3.09,0,0,1-1.2,2.6,4.83,4.83,0,0,1-3.3,1,7.86,7.86,0,0,1-5.3-2.2l1.6-2a5.58,5.58,0,0,0,3.6,1.8,2.13,2.13,0,0,0,1.2-.3,1,1,0,0,0,.4-.9,1.09,1.09,0,0,0-.4-.9,9.5,9.5,0,0,0-1.8-.7,8.81,8.81,0,0,1-3.2-1.3,2.92,2.92,0,0,1-1-2.5,3.29,3.29,0,0,1,1.2-2.7,4.9,4.9,0,0,1,3.2-1,6.72,6.72,0,0,1,2.4.4,9.41,9.41,0,0,1,2.2,1.2l-1.4,2a5.59,5.59,0,0,0-3.3-1.2A1.33,1.33,0,0,0,316,13.6Z" transform="translate(-2 -2.4)"/><path class="cls-4" d="M329.3,13.6v9.9h-2.7V13.6h-3.5V11.2h9.6v2.4Z" transform="translate(-2 -2.4)"/><path class="cls-4" d="M334.8,11.2h2.7V23.5h-2.7Z" transform="translate(-2 -2.4)"/><path class="cls-4" d="M345.8,13.6v9.9H343V13.6h-3.5V11.2h9.6v2.4Z" transform="translate(-2 -2.4)"/><path class="cls-4" d="M354.4,20.3a2.48,2.48,0,0,0,1.9.9,2.32,2.32,0,0,0,1.9-.9,3.7,3.7,0,0,0,.7-2.3V11.2h2.7v6.9a5.25,5.25,0,0,1-1.4,4.1,5.59,5.59,0,0,1-7.4,0,5.44,5.44,0,0,1-1.5-4.1V11.2H354V18A2.86,2.86,0,0,0,354.4,20.3Z" transform="translate(-2 -2.4)"/><path class="cls-4" d="M369.6,13.6v9.9h-2.7V13.6h-3.5V11.2H373v2.4Z" transform="translate(-2 -2.4)"/><path class="cls-4" d="M383.9,11.2v2.4h-6.1v2.5h5.5v2.3h-5.5V21h6.3v2.4h-9V11.2Z" transform="translate(-2 -2.4)"/><text class="cls-5" transform="translate(109.7 50.8)"><tspan class="cls-6">[</tspan><tspan class="cls-7" x="6.53" y="0">C</tspan><tspan class="cls-8" x="21.12" y="0">TD</tspan><tspan class="cls-9" x="49.03" y="0">C</tspan><tspan x="63.36" y="0">]</tspan></text></svg>