<?xml version="1.0" encoding="utf-8"?>
<!-- Generator: Adobe Illustrator 24.0.3, SVG Export Plug-In . SVG Version: 6.00 Build 0)  -->
<svg version="1.1" id="Layer_1" xmlns="http://www.w3.org/2000/svg" xmlns:xlink="http://www.w3.org/1999/xlink" x="0px" y="0px"
	 viewBox="0 0 26 26" style="enable-background:new 0 0 26 26;" xml:space="preserve">
<style type="text/css">
	.st0{fill:#C53D27;}
	.st1{fill:#FFFFFF;}
	.st2{fill:#11375C;}
</style>
<circle class="st0" cx="13" cy="13" r="12.8"/>
<g>
	<path class="st1" d="M20.8,11.8H19V9.5c0-1-0.5-1.4-1.4-1.4h-3.8c-0.3,0-0.5-0.1-0.6-0.3l-1-1c-0.2-0.2-0.4-0.3-0.6-0.3H7.4
		C6.5,6.6,6,7.1,6,8v10.3c0,0.3,0.2,0.5,0.5,0.5h13.1c0.1,0,0.1,0,0.2-0.1l2.2-5.8C22.2,12.2,21.8,11.8,20.8,11.8z"/>
	<path class="st2" d="M21.2,11.8h-1.8l0,0h-0.7l0,0l0,0h-7.3c-0.7,0-1.4,0.4-1.6,1l-2.1,5.4l-0.3,0.7h12.6c0.1,0,0.1,0,0.2-0.1
		l2.2-5.8C22.7,12.2,22.2,11.8,21.2,11.8z"/>
</g>
</svg>
