<?xml version="1.0" encoding="utf-8"?>
<!-- Generator: Adobe Illustrator 24.1.0, SVG Export Plug-In . SVG Version: 6.00 Build 0)  -->
<svg version="1.1" id="Layer_1" xmlns="http://www.w3.org/2000/svg" xmlns:xlink="http://www.w3.org/1999/xlink" x="0px" y="0px"
	 viewBox="0 0 664.3 84.9" style="enable-background:new 0 0 664.3 84.9;" xml:space="preserve">
<style type="text/css">
	.st0{fill:#F1F0F0;stroke:#E0714C;stroke-width:4;stroke-miterlimit:10;}
	.st1{fill:none;}
	.st2{fill:#D66C49;}
	.st3{font-family:'OpenSans';}
	.st4{font-size:59px;}
	.st5{fill:#0C4559;}
	.st6{font-family:'OpenSans-Semibold';}
	.st7{font-size:14px;}
	.st8{fill:#95979A;}
	.st9{fill:#0F4659;}
	.st10{opacity:0.5;}
</style>
<g>
	<path class="st0" d="M147.9,78.4H41.5c-19.8,0-36-16.2-36-36v0c0-19.8,16.2-36,36-36h106.4c19.8,0,36,16.2,36,36v0
		C183.8,62.2,167.7,78.4,147.9,78.4z"/>
	<rect x="32.1" y="18.9" class="st1" width="47.4" height="49.9"/>
	<text transform="matrix(1 0 0 1 32.0773 63.7713)" class="st2 st3 st4">1</text>
	<rect x="72.3" y="22.2" class="st1" width="80.7" height="56.2"/>
	<text transform="matrix(1 0 0 1 72.2868 32.8039)"><tspan x="0" y="0" class="st5 st6 st7">Select &amp; </tspan><tspan x="0" y="15" class="st5 st6 st7">save to </tspan><tspan x="0" y="30" class="st5 st6 st7">my cases</tspan></text>
</g>
<polygon class="st8" points="228,42.5 213.7,32.6 213.7,52.3 "/>
<rect x="202.3" y="38.5" class="st8" width="12.4" height="7.9"/>
<g>
	<path class="st0" d="M387.9,78.4H281.5c-19.8,0-36-16.2-36-36v0c0-19.8,16.2-36,36-36h106.4c19.8,0,36,16.2,36,36v0
		C423.8,62.2,407.6,78.4,387.9,78.4z"/>
	<rect x="277.3" y="18.9" class="st1" width="47.4" height="49.9"/>
	<text transform="matrix(1 0 0 1 277.3379 63.7713)" class="st2 st3 st4">2</text>
	<rect x="324.5" y="22.2" class="st1" width="80.7" height="56.2"/>
	<text transform="matrix(1 0 0 1 324.5468 32.8039)"><tspan x="0" y="0" class="st9 st6 st7">Review </tspan><tspan x="0" y="15" class="st9 st6 st7">my </tspan><tspan x="0" y="30" class="st9 st6 st7">cases</tspan></text>
</g>
<polygon class="st8" points="467.2,42.5 453,32.6 453,38.5 441.6,38.5 441.6,46.4 453,46.4 453,52.3 "/>
<g class="st10">
	<path class="st0" d="M625.4,78.4H519c-19.8,0-36-16.2-36-36v0c0-19.8,16.2-36,36-36h106.4c19.8,0,36,16.2,36,36v0
		C661.4,62.2,645.2,78.4,625.4,78.4z"/>
	<rect x="511.4" y="18.9" class="st1" width="47.4" height="49.9"/>
	<text transform="matrix(1 0 0 1 511.3551 63.7713)" class="st2 st3 st4">3</text>
	<rect x="555.6" y="22.2" class="st1" width="92" height="56.2"/>
	<text transform="matrix(1 0 0 1 555.5641 32.8039)"><tspan x="0" y="0" class="st9 st6 st7">Select files </tspan><tspan x="0" y="15" class="st9 st6 st7">&amp; Create </tspan><tspan x="0" y="30" class="st9 st6 st7">Manifest</tspan></text>
</g>
</svg>
